<svg width="122" height="134" viewBox="0 0 122 134" fill="none" xmlns="http://www.w3.org/2000/svg">
<g clip-path="url(#clip0_94_58)">
<path d="M99.5384 19.0233C99.4676 18.9738 99.4191 18.8979 99.4041 18.8128L99.3887 18.7278C99.3142 18.3174 99.1096 17.1919 99.0853 15.8951C99.059 14.5082 99.2358 12.8528 100.064 11.6679C100.869 10.5181 101.806 9.90586 102.78 9.74853C103.751 9.59141 104.703 9.89551 105.521 10.4682C106.341 11.0411 106.952 11.8308 107.138 12.7963C107.324 13.7649 107.071 14.8557 106.267 16.0057C105.439 17.1895 103.969 17.9198 102.667 18.3696C101.453 18.7888 100.328 18.9829 99.8793 19.0605L99.7822 19.0773C99.74 19.0847 99.6968 19.0838 99.6549 19.0745C99.6131 19.0653 99.5735 19.0479 99.5384 19.0233V19.0233Z" fill="white"/>
<path d="M91.3535 4.59983C92.6136 4.52563 93.9662 4.93476 95.1136 5.73723C96.261 6.5397 97.1093 7.66978 97.472 8.8789L98.8392 13.4384L94.0874 13.7185C92.8271 13.7928 91.4744 13.3837 90.3268 12.5811C89.1793 11.7785 88.3309 10.6483 87.9683 9.43906C87.6057 8.2298 87.7586 7.04055 88.3933 6.13295C89.028 5.22535 90.0926 4.67373 91.3529 4.59945L91.3535 4.59983Z" stroke="white" stroke-width="2"/>
<path d="M112.476 26.5789C111.216 26.6531 109.863 26.244 108.716 25.4415C107.568 24.6391 106.72 23.509 106.357 22.2999L104.99 17.7403L109.742 17.4603C111.002 17.386 112.355 17.7951 113.502 18.5977C114.65 19.4002 115.498 20.5305 115.861 21.7397C116.224 22.949 116.071 24.1382 115.436 25.0458C114.801 25.9534 113.737 26.505 112.476 26.5793L112.476 26.5789Z" stroke="white" stroke-width="2"/>
<path d="M24.4788 33.3353C24.4405 33.3861 24.3833 33.4198 24.3202 33.4287L24.2572 33.4378C23.9528 33.4819 23.1181 33.6029 22.162 33.5868C21.1394 33.5696 19.9243 33.3957 19.0731 32.754C18.2471 32.1312 17.8207 31.4243 17.7304 30.7025C17.6402 29.9831 17.8893 29.2898 18.3329 28.7015C18.7766 28.113 19.3745 27.6831 20.0908 27.5717C20.8094 27.4599 21.6064 27.6753 22.4326 28.2981C23.283 28.9393 23.7824 30.042 24.0796 31.013C24.3565 31.9183 24.4699 32.7523 24.5152 33.085L24.525 33.157C24.5294 33.1883 24.5276 33.2202 24.5197 33.2507C24.5117 33.2813 24.4979 33.31 24.4788 33.3353V33.3353Z" fill="white"/>
<path d="M13.6359 38.9862C13.6144 38.0557 13.9515 37.0699 14.5729 36.2456C15.1944 35.4213 16.0494 34.826 16.9499 34.5907L20.3454 33.7033L20.4267 37.212C20.4482 38.1425 20.1111 39.1284 19.4896 39.9528C18.868 40.7772 18.0129 41.3726 17.1123 41.6079C16.2118 41.8432 15.3396 41.6993 14.6875 41.2077C14.0355 40.7161 13.6571 39.9171 13.6356 38.9866L13.6359 38.9862Z" stroke="white"/>
<path d="M30.3867 24.0018C30.4081 24.9322 30.0711 25.918 29.4496 26.7423C28.8281 27.5666 27.9731 28.1619 27.0726 28.3973L23.6771 29.2846L23.5959 25.776C23.5743 24.8455 23.9114 23.8595 24.533 23.0351C25.1545 22.2107 26.0096 21.6154 26.9102 21.3801C27.8107 21.1447 28.683 21.2887 29.335 21.7803C29.987 22.2719 30.3654 23.0708 30.3869 24.0014L30.3867 24.0018Z" stroke="white"/>
<g filter="url(#filter0_d_94_58)">
<path d="M87.4879 77.3716H36.1594V75.3148L81.3285 71.6949V75.3148H87.4879V69.1444C87.4879 64.6195 83.8292 61.4439 79.3616 62.0815L38.1304 67.9803C33.6587 68.622 30 72.8466 30 77.3716V118.507C30 120.689 30.8652 122.782 32.4054 124.325C33.9456 125.868 36.0345 126.734 38.2126 126.734H87.4879C89.666 126.734 91.7549 125.868 93.2951 124.325C94.8352 122.782 95.7005 120.689 95.7005 118.507V85.5987C95.7005 83.4167 94.8352 81.3241 93.2951 79.7812C91.7549 78.2383 89.666 77.3716 87.4879 77.3716V77.3716ZM81.3285 106.191C80.5194 106.191 79.7182 106.031 78.9708 105.721C78.2233 105.41 77.5442 104.955 76.9723 104.382C76.4003 103.809 75.9467 103.128 75.6373 102.379C75.3279 101.63 75.1688 100.827 75.1691 100.017C75.1694 99.2062 75.329 98.4036 75.6389 97.6548C75.9488 96.906 76.4029 96.2257 76.9752 95.6528C77.5475 95.0798 78.2269 94.6254 78.9746 94.3154C79.7222 94.0055 80.5235 93.8461 81.3326 93.8464C82.9667 93.8469 84.5337 94.4978 85.6888 95.6557C86.8439 96.8136 87.4926 98.3838 87.492 100.021C87.4915 101.658 86.8418 103.228 85.6859 104.385C84.53 105.542 82.9626 106.192 81.3285 106.191Z" fill="#FF62B7"/>
</g>
<rect x="94.994" y="21.9101" width="1" height="4.52343" transform="rotate(54.2307 94.994 21.9101)" fill="white"/>
<rect x="90.0262" y="26.6885" width="1" height="4.52343" transform="rotate(30.1588 90.0262 26.6885)" fill="white"/>
<rect x="86.9834" y="32.9731" width="1" height="4.52343" transform="rotate(1.39117 86.9834 32.9731)" fill="white"/>
<rect x="87.2157" y="40.2713" width="1" height="4.52343" transform="rotate(-22.7974 87.2157 40.2713)" fill="white"/>
<rect x="90.9943" y="46.4039" width="1" height="4.52343" transform="rotate(-62.1646 90.9943 46.4039)" fill="white"/>
<rect x="97.5502" y="48.7619" width="1" height="4.52343" transform="rotate(-109.63 97.5502 48.7619)" fill="white"/>
<rect x="103.862" y="45.4719" width="1" height="4.52343" transform="rotate(-159.323 103.862 45.4719)" fill="white"/>
<rect x="105.359" y="38.63" width="1" height="4.52343" transform="rotate(141.608 105.359 38.63)" fill="white"/>
<rect x="101.114" y="33.9654" width="1" height="2.61877" transform="rotate(105.232 101.114 33.9654)" fill="white"/>
<rect x="96.3083" y="32.8313" width="1" height="4" transform="rotate(72.5849 96.3083 32.8313)" fill="white"/>
<rect x="90.274" y="34.5827" width="1" height="4" transform="rotate(61.8476 90.274 34.5827)" fill="white"/>
<rect x="84.4628" y="38.0821" width="1" height="4" transform="rotate(53.2815 84.4628 38.0821)" fill="white"/>
<rect x="79.3908" y="41.9696" width="1" height="4" transform="rotate(42.1322 79.3908 41.9696)" fill="white"/>
<rect x="75.5009" y="46.4793" width="1" height="4" transform="rotate(33.7751 75.5009 46.4793)" fill="white"/>
<rect x="72.2985" y="51.9119" width="1" height="4" transform="rotate(19.2482 72.2985 51.9119)" fill="white"/>
<rect width="0.773304" height="3.49799" transform="matrix(-0.448779 0.893643 0.893643 0.448779 29.3851 36.7838)" fill="white"/>
<rect width="0.773304" height="3.49799" transform="matrix(-0.774253 0.632877 0.632877 0.774253 33.7629 39.8246)" fill="white"/>
<rect width="0.773304" height="3.49799" transform="matrix(-0.983271 0.18215 0.18215 0.983271 36.8553 44.251)" fill="white"/>
<rect width="0.773304" height="3.49799" transform="matrix(-0.971576 -0.236729 -0.236729 0.971576 37.5709 49.852)" fill="white"/>
<rect width="0.773304" height="3.49799" transform="matrix(-0.600968 -0.799273 -0.799273 0.600968 35.436 54.9969)" fill="white"/>
<rect width="0.773304" height="3.49799" transform="matrix(0.182684 -0.983172 -0.983172 -0.182684 30.7187 57.5996)" fill="white"/>
<rect width="0.773304" height="3.49799" transform="matrix(0.867933 -0.496682 -0.496682 -0.867933 25.4964 55.8598)" fill="white"/>
<rect width="0.773304" height="2.90036" transform="matrix(0.950895 0.309514 0.309514 -0.950895 23.4744 50.097)" fill="white"/>
<rect width="0.773304" height="2.02511" transform="matrix(0.138096 0.990419 0.990419 -0.138096 26.0587 45.5076)" fill="white"/>
<rect width="0.773304" height="3.09322" transform="matrix(-0.144551 0.989497 0.989497 0.144551 29.7178 45.2836)" fill="white"/>
<rect width="0.773304" height="3.09322" transform="matrix(-0.326369 0.945242 0.945242 0.326369 34.5397 45.8826)" fill="white"/>
<rect width="0.773304" height="3.09322" transform="matrix(-0.463522 0.886085 0.886085 0.463522 39.405 47.8436)" fill="white"/>
<rect width="0.773304" height="3.09322" transform="matrix(-0.626114 0.779732 0.779732 0.626114 43.7534 50.1913)" fill="white"/>
<rect width="0.773304" height="3.09322" transform="matrix(-0.732793 0.680451 0.680451 0.732793 47.2754 53.1588)" fill="white"/>
<rect width="0.773304" height="3.09322" transform="matrix(-0.880047 0.474887 0.474887 0.880047 50.3854 56.9151)" fill="white"/>
</g>
<defs>
<filter id="filter0_d_94_58" x="18" y="50" width="89.7005" height="88.7343" filterUnits="userSpaceOnUse" color-interpolation-filters="sRGB">
<feFlood flood-opacity="0" result="BackgroundImageFix"/>
<feColorMatrix in="SourceAlpha" type="matrix" values="0 0 0 0 0 0 0 0 0 0 0 0 0 0 0 0 0 0 127 0" result="hardAlpha"/>
<feOffset/>
<feGaussianBlur stdDeviation="6"/>
<feComposite in2="hardAlpha" operator="out"/>
<feColorMatrix type="matrix" values="0 0 0 0 0 0 0 0 0 0 0 0 0 0 0 0 0 0 0.53 0"/>
<feBlend mode="normal" in2="BackgroundImageFix" result="effect1_dropShadow_94_58"/>
<feBlend mode="normal" in="SourceGraphic" in2="effect1_dropShadow_94_58" result="shape"/>
</filter>
<clipPath id="clip0_94_58">
<rect width="122" height="134" fill="white"/>
</clipPath>
</defs>
</svg>
