<svg width="224" height="128" viewBox="0 0 224 128" fill="none" xmlns="http://www.w3.org/2000/svg">
<g filter="url(#filter0_d_85_16)">
<path fill-rule="evenodd" clip-rule="evenodd" d="M85.8502 13.6889C85.694 13.2935 85.418 12.9568 85.061 12.726C84.7039 12.4951 84.2836 12.3817 83.8589 12.4016C83.4342 12.4214 83.0263 12.5736 82.6924 12.8367C82.3584 13.0998 82.1151 13.4608 81.9964 13.8691L75.4856 36.1833C75.3585 36.6186 75.3802 37.0838 75.5472 37.5053C75.7142 37.9269 76.0169 38.2807 76.4075 38.5109L96.4326 50.3142C96.7986 50.5304 97.2231 50.6269 97.6467 50.5899C98.0703 50.553 98.4717 50.3846 98.7948 50.1082C99.1179 49.8319 99.3465 49.4614 99.4486 49.0487C99.5508 48.6359 99.5213 48.2016 99.3644 47.8065L96.3687 40.2437C106.648 36.4175 112.313 36.4127 115.606 37.5421C118.737 38.6153 120.097 40.7978 121.519 43.0855L121.886 43.6746C122.151 44.0953 122.561 44.4046 123.038 44.5444C123.515 44.6841 124.027 44.6447 124.477 44.4336C124.927 44.2224 125.284 43.854 125.482 43.3978C125.679 42.9415 125.703 42.4288 125.549 41.9561C123.81 36.6191 120.333 29.2645 114.153 24.4081C108.155 19.6947 99.8576 17.5301 88.8699 21.3123L85.8502 13.6889Z" fill="white"/>
</g>
<g filter="url(#filter1_d_85_16)">
<path d="M69.4879 61.816H18.1594V59.7592L63.3285 56.1393V59.7592H69.4879V53.5889C69.4879 49.064 65.8292 45.8883 61.3616 46.5259L20.1304 52.4247C15.6587 53.0665 12 57.2911 12 61.816V102.952C12 105.134 12.8652 107.226 14.4054 108.769C15.9456 110.312 18.0345 111.179 20.2126 111.179H69.4879C71.666 111.179 73.7549 110.312 75.2951 108.769C76.8352 107.226 77.7005 105.134 77.7005 102.952V70.0431C77.7005 67.8612 76.8352 65.7686 75.2951 64.2257C73.7549 62.6828 71.666 61.816 69.4879 61.816V61.816ZM63.3285 90.6356C62.5194 90.6353 61.7182 90.4754 60.9708 90.165C60.2233 89.8545 59.5442 89.3997 58.9723 88.8263C58.4003 88.253 57.9467 87.5724 57.6373 86.8234C57.3279 86.0744 57.1688 85.2717 57.1691 84.4612C57.1694 83.6506 57.329 82.848 57.6389 82.0992C57.9488 81.3505 58.4029 80.6702 58.9752 80.0972C59.5475 79.5243 60.2269 79.0698 60.9746 78.7599C61.7222 78.4499 62.5235 78.2906 63.3326 78.2908C64.9667 78.2914 66.5337 78.9422 67.6888 80.1001C68.8439 81.2581 69.4926 82.8283 69.492 84.4653C69.4915 86.1023 68.8418 87.6721 67.6859 88.8292C66.53 89.9864 64.9626 90.6362 63.3285 90.6356Z" fill="#FF62B7"/>
</g>
<g filter="url(#filter2_d_85_16)">
<path d="M201.855 33.8841H140.986C138.132 33.8841 135.728 34.8616 133.773 36.8166C131.818 38.7716 130.841 41.1757 130.841 44.029V108.227C130.841 110.13 131.501 111.741 132.822 113.062C134.143 114.383 135.755 115.043 137.657 115.043H205.184C207.086 115.043 208.698 114.383 210.019 113.062C211.34 111.741 212 110.13 212 108.227V44.029C212 41.1757 211.022 38.7716 209.067 36.8166C207.112 34.8616 204.708 33.8841 201.855 33.8841ZM205.184 108.227H137.657V44.029C137.657 41.8098 138.766 40.7002 140.986 40.7002H201.855C204.074 40.7002 205.184 41.8098 205.184 44.029V108.227ZM191.71 44.029H151.13C149.334 44.029 147.749 44.6895 146.375 46.0104C145.001 47.3314 144.314 48.9429 144.314 50.8451V57.5027H140.986V64.3188H144.314V84.6087H140.986V91.4248H144.314V98.0824C144.314 99.9846 145.001 101.596 146.375 102.917C147.749 104.238 149.334 104.899 151.13 104.899H191.71C194.563 104.899 196.968 103.921 198.923 101.966C200.878 100.011 201.855 97.6069 201.855 94.7536V54.1739C201.855 51.3207 200.878 48.9165 198.923 46.9615C196.968 45.0065 194.563 44.029 191.71 44.029ZM195.039 94.7536C195.039 96.9728 193.929 98.0824 191.71 98.0824H151.13V91.4248H154.459V84.6087H151.13V64.3188H154.459V57.5027H151.13V50.8451H191.71C193.929 50.8451 195.039 51.9547 195.039 54.1739V94.7536ZM183.943 78.9022C184.577 77.5284 184.894 76.0489 184.894 74.4638C184.894 72.3502 184.26 70.4216 182.992 68.678C181.724 66.9343 180.139 65.6926 178.236 64.9529V57.5027C178.236 56.5516 177.919 55.7591 177.285 55.125C176.651 54.4909 175.806 54.1739 174.749 54.1739C173.798 54.1739 173.005 54.4909 172.371 55.125C171.737 55.7591 171.42 56.5516 171.42 57.5027V64.9529C166.876 66.538 164.604 69.7083 164.604 74.4638C164.604 76.0489 164.974 77.5284 165.714 78.9022L158.898 85.5598C157.418 87.2506 157.418 88.8357 158.898 90.3152C159.532 91.055 160.324 91.4248 161.275 91.4248C162.226 91.4248 163.019 91.055 163.653 90.3152L170.469 83.6576C171.737 84.2917 173.164 84.6087 174.749 84.6087C176.44 84.6087 177.919 84.2917 179.187 83.6576L186.004 90.3152C186.638 91.055 187.43 91.4248 188.381 91.4248C189.227 91.4248 190.019 91.055 190.759 90.3152C192.239 88.8357 192.239 87.2506 190.759 85.5598L183.943 78.9022ZM174.749 77.7926C172.53 77.7926 171.42 76.683 171.42 74.4638C171.42 72.2446 172.53 71.135 174.749 71.135C177.074 71.135 178.236 72.2446 178.236 74.4638C178.236 76.683 177.074 77.7926 174.749 77.7926Z" fill="#FFCD1E"/>
</g>
<defs>
<filter id="filter0_d_85_16" x="63.4039" y="0.399338" width="74.2456" height="62.1983" filterUnits="userSpaceOnUse" color-interpolation-filters="sRGB">
<feFlood flood-opacity="0" result="BackgroundImageFix"/>
<feColorMatrix in="SourceAlpha" type="matrix" values="0 0 0 0 0 0 0 0 0 0 0 0 0 0 0 0 0 0 127 0" result="hardAlpha"/>
<feOffset/>
<feGaussianBlur stdDeviation="6"/>
<feComposite in2="hardAlpha" operator="out"/>
<feColorMatrix type="matrix" values="0 0 0 0 0 0 0 0 0 0 0 0 0 0 0 0 0 0 0.53 0"/>
<feBlend mode="normal" in2="BackgroundImageFix" result="effect1_dropShadow_85_16"/>
<feBlend mode="normal" in="SourceGraphic" in2="effect1_dropShadow_85_16" result="shape"/>
</filter>
<filter id="filter1_d_85_16" x="0" y="34.4444" width="89.7005" height="88.7343" filterUnits="userSpaceOnUse" color-interpolation-filters="sRGB">
<feFlood flood-opacity="0" result="BackgroundImageFix"/>
<feColorMatrix in="SourceAlpha" type="matrix" values="0 0 0 0 0 0 0 0 0 0 0 0 0 0 0 0 0 0 127 0" result="hardAlpha"/>
<feOffset/>
<feGaussianBlur stdDeviation="6"/>
<feComposite in2="hardAlpha" operator="out"/>
<feColorMatrix type="matrix" values="0 0 0 0 0 0 0 0 0 0 0 0 0 0 0 0 0 0 0.53 0"/>
<feBlend mode="normal" in2="BackgroundImageFix" result="effect1_dropShadow_85_16"/>
<feBlend mode="normal" in="SourceGraphic" in2="effect1_dropShadow_85_16" result="shape"/>
</filter>
<filter id="filter2_d_85_16" x="118.841" y="21.8841" width="105.159" height="105.159" filterUnits="userSpaceOnUse" color-interpolation-filters="sRGB">
<feFlood flood-opacity="0" result="BackgroundImageFix"/>
<feColorMatrix in="SourceAlpha" type="matrix" values="0 0 0 0 0 0 0 0 0 0 0 0 0 0 0 0 0 0 127 0" result="hardAlpha"/>
<feOffset/>
<feGaussianBlur stdDeviation="6"/>
<feComposite in2="hardAlpha" operator="out"/>
<feColorMatrix type="matrix" values="0 0 0 0 0 0 0 0 0 0 0 0 0 0 0 0 0 0 0.53 0"/>
<feBlend mode="normal" in2="BackgroundImageFix" result="effect1_dropShadow_85_16"/>
<feBlend mode="normal" in="SourceGraphic" in2="effect1_dropShadow_85_16" result="shape"/>
</filter>
</defs>
</svg>
